<?xml version="1.0" encoding="UTF-8"?>
<svg id="Layer_1" data-name="Layer 1" xmlns="http://www.w3.org/2000/svg" viewBox="0 0 1080 894.19">
  <defs>
    <style>
      .cls-1 {
        fill: #fd0;
      }
    </style>
  </defs>
  <g>
    <g>
      <path class="cls-1" d="M172.83,229.26v-120.35l-38.3,84.63h-33.47l-38.3-84.63v120.35H0V.76h68.56l49.24,107.49L167.36.76h68.23v228.49h-62.76Z"/>
      <path class="cls-1" d="M437.7,174.54v54.72h-162.85V.76h159.95v54.72h-97.19v32.17h83.03v50.86h-83.03v36.03h100.09Z"/>
      <path class="cls-1" d="M466.99,229.26V.76h62.76v228.49h-62.76Z"/>
      <path class="cls-1" d="M569,229.26V.76h104.92c11.16,0,21.46,2.26,30.9,6.74,9.43,4.51,17.59,10.57,24.46,18.2,6.86,7.6,12.17,16.14,15.93,25.57,3.76,9.46,5.63,19,5.63,28.66,0,8.8-1.29,17.26-3.86,25.43-2.57,8.14-6.33,15.6-11.27,22.34-4.93,6.77-10.83,12.63-17.7,17.54l48.29,84h-68.87l-40.23-70.15h-25.43v70.15h-62.76ZM631.76,104.4h39.59c2.57,0,5.04-.97,7.4-2.91,2.36-1.91,4.34-4.71,5.96-8.34,1.6-3.66,2.41-8.06,2.41-13.2s-.91-9.83-2.74-13.37c-1.83-3.54-4.07-6.26-6.76-8.2-2.69-1.94-5.31-2.89-7.89-2.89h-37.97v48.92Z"/>
    </g>
    <g>
      <path class="cls-1" d="M193.43,500.2v64.99H0v-271.38h189.99v64.99h-115.45v38.21h98.63v60.41h-98.63v42.79h118.89Z"/>
      <path class="cls-1" d="M302.74,431.78v133.4h-74.54v-271.38h58.11l108.93,137.98v-137.98h74.54v271.38h-59.25l-107.8-133.4Z"/>
      <path class="cls-1" d="M590.95,431.78v133.4h-74.54v-271.38h58.11l108.93,137.98v-137.98h74.54v271.38h-59.25l-107.8-133.4Z"/>
    </g>
    <g>
      <path class="cls-1" d="M205.28,894.17v-142.94l-45.49,100.52h-39.76l-45.49-100.52v142.94H0v-271.38h81.43l58.49,127.67,58.86-127.67h81.04v271.38h-74.54Z"/>
      <path class="cls-1" d="M389.14,622.79h83.33l86.38,271.38h-75.69l-14.02-53.11h-76.68l-14.03,53.11h-76.07l86.77-271.38ZM456.03,791.35l-25.23-95.56-25.21,95.56h50.45Z"/>
      <path class="cls-1" d="M758,687.78h-77.98v206.4h-74.54v-206.4h-78.36v-64.99h230.88v64.99Z"/>
    </g>
  </g>
  <path class="cls-1" d="M865.23,783.45V0h214.77v783.45h-214.77ZM865.23,893.41v-67.44h214.77v67.44h-214.77Z"/>
</svg>