<svg id="Dynamisk_sentrert" xmlns="http://www.w3.org/2000/svg" viewBox="0 0 566.93 793.7"><defs><style>.cls-1{fill:#594a25;}</style></defs><title>NB_logo_RGB_sentrert_farge2</title><path class="cls-1" d="M537.62,189A205.17,205.17,0,0,0,362.09,310.21l-.91,2-.53-2.14A353.36,353.36,0,0,0,341,252.41l-.16-.38.24-.35a254.39,254.39,0,0,1,135.75-99.4v-28a277.61,277.61,0,0,0-94.52,46.09l-.66.5-.45-.71a430,430,0,0,0-25.94-37.39l-.49-.62.63-.46a324.06,324.06,0,0,1,121.43-56V48.18a350,350,0,0,0-138.69,62.88l-.56.42-.46-.52A431.06,431.06,0,0,0,305,78.43l-.68-.61.72-.56a403,403,0,0,1,90-52.39L385,0A430.81,430.81,0,0,0,283.9,59.75l-.47.37-.48-.37A430.72,430.72,0,0,0,181.89,0l-10,24.88a403.85,403.85,0,0,1,90,52.36l.73.55-.69.61A434.14,434.14,0,0,0,229.77,111l-.46.52-.56-.42A350,350,0,0,0,90.06,48.18V75.73a323.87,323.87,0,0,1,121.45,56l.62.46-.49.62a431.08,431.08,0,0,0-25.95,37.37l-.45.71-.66-.5a278.13,278.13,0,0,0-94.52-46.08v28a254.39,254.39,0,0,1,135.75,99.4l.24.35-.16.38a353.36,353.36,0,0,0-19.61,57.67l-.53,2.14-.9-2A205.19,205.19,0,0,0,29.31,189v26.92a178.88,178.88,0,0,1,112.4,50.18,178.83,178.83,0,0,1,53.52,111.25l.07.83H164.69A118.67,118.67,0,0,0,162.85,401a104.43,104.43,0,0,0,1.83,21.85h31.46v131H223v-131H270v131H296.9v-131h47v131H370.8v-131h31.41A142,142,0,0,0,404.08,400a127.13,127.13,0,0,0-1.86-21.88H371.63l.07-.83A179.18,179.18,0,0,1,537.62,215.88ZM333.39,149.65l.61-.53.49.63a399.34,399.34,0,0,1,26,38l.31.53-.45.42a282.9,282.9,0,0,0-32.17,35.18l-.71.91-.56-1A355.58,355.58,0,0,0,301,183.56l-.36-.48.39-.46A327.87,327.87,0,0,1,333.39,149.65Zm-82.77-21.72a406.9,406.9,0,0,1,32.3-32.31l.51-.46.5.46a403,403,0,0,1,32.38,32.31l.52.58-.58.5A356.73,356.73,0,0,0,284,161.28l-.57.65-.56-.65A359.68,359.68,0,0,0,250.68,129l-.58-.5Zm-44.07,60.78-.44-.41.31-.54a409.28,409.28,0,0,1,26-38l.51-.64.61.54a334.37,334.37,0,0,1,32.33,33l.39.46-.36.48A355.39,355.39,0,0,0,240,223.8l-.56,1-.71-.91A279.7,279.7,0,0,0,206.55,188.71Zm16.77,189.43,0-.79a324.67,324.67,0,0,1,19.2-94.63l.61-1.67.79,1.59a250.6,250.6,0,0,1,25.45,94.69l.06.81Zm60.88-71.46-.73,2.18-.72-2.18a278.78,278.78,0,0,0-25.9-56.38l-.2-.35.17-.38a327.14,327.14,0,0,1,26-43.52l.62-.88.63.88a329.78,329.78,0,0,1,26,43.52l.18.38-.21.35A278.6,278.6,0,0,0,284.2,306.68Zm13.27,71.46,0-.81A250.6,250.6,0,0,1,323,282.64l.79-1.59.61,1.67a324.81,324.81,0,0,1,19.21,94.63l.05.79Z"/><path class="cls-1" d="M148,618v63.61a27.08,27.08,0,0,1-7.1.9l-34.11-48.21-1.6-3.2v51.11a12.42,12.42,0,0,1-3.8.5,13.48,13.48,0,0,1-3.9-.5V618.77a11.48,11.48,0,0,1,7.2-1.1l34,47.61,1.7,2.9-.1-4.4V618a15.07,15.07,0,0,1,7.7,0Z"/><path class="cls-1" d="M164.76,650c0-19,13.4-33.8,32-33.8s32,14.3,32,33.8c0,18.81-13.4,33.71-32,33.71S164.76,669.28,164.76,650Zm55.51,0c0-15.5-9.3-26.3-23.5-26.3s-23.51,10.8-23.51,26.3c0,15.21,9.31,26.21,23.51,26.21S220.27,665.18,220.27,650Z"/><path class="cls-1" d="M291.47,681.58a18.42,18.42,0,0,1-5.6.8,20,20,0,0,1-3.5-.2L267,657.08a16.4,16.4,0,0,1-2.1.09c-3.6,0-7.5-.09-11.3-.39v25.4a14.4,14.4,0,0,1-4.1.5,13.72,13.72,0,0,1-4-.5V619a92.27,92.27,0,0,1,19.4-2.1c16.31,0,23.91,7.6,23.91,19.3,0,9.9-5.8,16.3-13.6,19.2Zm-26.61-31.71c11.41,0,15.81-5.8,15.81-13.5s-5-12.3-15.91-12.3a67.74,67.74,0,0,0-11.2.9v24.4A87.76,87.76,0,0,0,264.86,649.87Z"/><path class="cls-1" d="M356.77,649v29.81a48.19,48.19,0,0,1-21.9,5c-18.21,0-32.81-12.6-32.81-33.61,0-21.2,15.3-34,32.51-34,10.4,0,17.5,2.7,21.7,5.8a9,9,0,0,1-4.3,6.8c-4.8-3.1-9.7-4.9-17.4-4.9-12.81,0-24,9.5-24,26.3,0,15.51,8.2,26,24.51,26a36.77,36.77,0,0,0,13.5-2.2V656.67h-13.5a12.83,12.83,0,0,1-.5-3.8,13.56,13.56,0,0,1,.5-3.9Z"/><path class="cls-1" d="M416.27,678.28a12.72,12.72,0,0,1-.6,3.9H374.86V618h39.81a12.26,12.26,0,0,1,.6,3.9,10.46,10.46,0,0,1-.6,3.6H382.86v19.9h28.31a12.43,12.43,0,0,1,.6,3.71,12,12,0,0,1-.6,3.7H382.86v22h32.81A10.3,10.3,0,0,1,416.27,678.28Z"/><path class="cls-1" d="M427.56,675.58a10.33,10.33,0,0,1,5-6.1,22.18,22.18,0,0,0,16.3,6.8c10,0,14.71-4.8,14.71-11.5,0-5-2.41-9.11-14.81-12-10-2.41-19.3-6.51-19.3-18.91,0-10,8.1-17.5,20.6-17.5,10.1,0,16.1,3,20.51,6.3a9.13,9.13,0,0,1-4.3,6.5,25.92,25.92,0,0,0-16.21-5.3c-7.8,0-12.6,4.3-12.6,9.5s2.6,8.3,13,10.9c12.91,3.2,21.21,8.1,21.21,20.31s-8.91,19.2-22.81,19.2C437.66,683.78,431.06,679.28,427.56,675.58Z"/><path class="cls-1" d="M78.37,762.38c0,11.9-8.2,19.6-27.9,19.6a117.28,117.28,0,0,1-21.2-1.8V717.07a107.15,107.15,0,0,1,20.8-2c18.3,0,25.5,7,25.5,18.4,0,7.6-3.3,11.7-8.3,13.9C74,749.78,78.37,754.58,78.37,762.38Zm-34.2-35v14.5h7.6c6.7,0,9.2-2.7,9.2-7.7,0-4.4-3.2-7.1-9.8-7.1C49.07,727.07,46.67,727.17,44.17,727.37Zm19.1,34.21c0-5-3.5-8-10.7-8h-8.4v16.1c2.5.2,5,.3,7.8.3C59.87,770,63.27,767.18,63.27,761.58Z"/><path class="cls-1" d="M87.46,748c0-20.1,14.11-34.1,33.71-34.1s33.7,13.5,33.7,34.1c0,19.91-14.1,34-33.7,34S87.46,768.38,87.46,748Zm51.21,0c0-12.3-6.9-20-17.5-20s-17.5,7.7-17.5,20c0,12,6.9,19.91,17.5,19.91S138.67,760,138.67,748Z"/><path class="cls-1" d="M223.27,716.07v63.81a58.34,58.34,0,0,1-14.3.8l-24.81-36.51-2.1-3.8.41,4.6v35.21a49.47,49.47,0,0,1-7.51.6,47.82,47.82,0,0,1-7.3-.6V716.57a38.22,38.22,0,0,1,14.31-1l24.7,37.3,2.2,3.91-.4-5.11v-35.6a44.64,44.64,0,0,1,7.2-.6A50.63,50.63,0,0,1,223.27,716.07Z"/><path class="cls-1" d="M297,747.37c0,21.11-14.5,34-36.51,34a147.49,147.49,0,0,1-21-1.3V716.27a117,117,0,0,1,20.7-1.6C283.87,714.67,297,727.77,297,747.37Zm-16.4.21c0-11.51-6.9-18.91-19.7-18.91-2,0-4.11,0-6.41.2v38.41c2.2.1,4.4.2,6.8.2C273.57,767.48,280.57,759.68,280.57,747.58Z"/><path class="cls-1" d="M354,773.48a30.5,30.5,0,0,1-.69,6.7H309.86V716h42.4a27.7,27.7,0,0,1,0,13.3h-27.5v11.6h24.5a29.62,29.62,0,0,1,.7,6.6,28.84,28.84,0,0,1-.7,6.51h-24.5v12.9h28.51A29.61,29.61,0,0,1,354,773.48Z"/><path class="cls-1" d="M409.16,773.48a30.51,30.51,0,0,1-.7,6.7h-41.3V716a46.32,46.32,0,0,1,7.4-.7,47.56,47.56,0,0,1,7.5.7v50.81h26.4A31.15,31.15,0,0,1,409.16,773.48Z"/><path class="cls-1" d="M476.17,779.48a43.5,43.5,0,0,1-9.6,1.2,33.11,33.11,0,0,1-5.51-.5l-4.6-12.7h-23.8l-4.6,12.7a51.7,51.7,0,0,1-6.8.4,24,24,0,0,1-7.9-1.1l24-63.51a40,40,0,0,1,7.7-.6,35.4,35.4,0,0,1,7.3.6Zm-24.31-24.4-5.4-14.81-2-6.2-1.8,6.2-5.4,14.81Z"/><path class="cls-1" d="M537.66,742.77v34.11c-5.1,2.7-11.9,5.2-23,5.2-21.2,0-34.1-13.1-34.1-33.81s13.8-34.4,34.4-34.4c9.1,0,16.1,2.5,20.5,5.5-.7,4.9-3.4,9.9-7.6,12.4a22.93,22.93,0,0,0-13.1-3.6c-10.7,0-18,7-18,19.91,0,12.3,5.9,20,17.9,20a37.87,37.87,0,0,0,8.4-.8v-10.8h-10.5a33.72,33.72,0,0,1-.6-7,30.38,30.38,0,0,1,.6-6.7Z"/></svg>